<svg xmlns="http://www.w3.org/2000/svg" viewBox="0 0 223.38 257.93"><defs><style>.cls-1{fill:#00b3f0;}.cls-2{fill:#004282;}.cls-3{fill:#007dc5;}.cls-4{fill:none;stroke:#007dc5;stroke-miterlimit:10;stroke-width:4px;}</style></defs><g id="Layer_2" data-name="Layer 2"><g id="Logo"><path class="cls-1" d="M24.93,69.77a9.83,9.83,0,1,1-3.59,13.42A9.83,9.83,0,0,1,24.93,69.77Zm80.27-35a9.82,9.82,0,1,0,3.6-13.42A9.83,9.83,0,0,0,105.2,34.77ZM77.25,50.91a9.82,9.82,0,1,0,3.59-13.42A9.83,9.83,0,0,0,77.25,50.91Zm-28,16.14a9.82,9.82,0,1,0,3.6-13.42A9.83,9.83,0,0,0,49.29,67.05Zm101-16.14a9.82,9.82,0,1,0-13.42,3.6A9.83,9.83,0,0,0,150.25,50.91ZM178.2,67.05a9.82,9.82,0,1,0-13.42,3.6A9.82,9.82,0,0,0,178.2,67.05Zm-76.57-4.53a6,6,0,0,1-2.93,5.41l-.42.25A6,6,0,0,1,92.13,68,12.12,12.12,0,0,0,73.64,78.68a6,6,0,0,1-2.93,5.41l-.42.25a5.8,5.8,0,0,1-6-.09,12.14,12.14,0,1,0,5.61,10.22A6.05,6.05,0,0,1,73,89.3l.69-.39a6,6,0,0,1,6-.1,12.1,12.1,0,0,0,18.19-10.5A6.06,6.06,0,0,1,101,73.14l.85-.49a5.81,5.81,0,0,1,5.8,0,12.1,12.1,0,0,0,11.61.37h0l.51-.27a1.55,1.55,0,0,1,.22-.12,6.07,6.07,0,0,1,6.15,0l.4.23a6.18,6.18,0,0,1,3.07,5.42,12.12,12.12,0,1,0,6-10.41,6.27,6.27,0,0,1-6.31.1L129,67.7a6.08,6.08,0,0,1-3.08-5.32c0-.1,0-.18,0-.27a12,12,0,0,0-1.32-5.5,12.13,12.13,0,0,0-22.91,5.91Zm47.7,43.71L119.43,89a11.26,11.26,0,0,0-11.28,0L78.24,106.23l35.55,20.53Z"/><path class="cls-2" d="M108.83,232.18a9.83,9.83,0,1,1,13.42-3.6A9.82,9.82,0,0,1,108.83,232.18Zm-70.44-52A9.82,9.82,0,1,0,25,183.76,9.83,9.83,0,0,0,38.39,180.17Zm28,16.14a9.83,9.83,0,1,0-13.42,3.59A9.83,9.83,0,0,0,66.35,196.31Zm28,16.13A9.82,9.82,0,1,0,80.88,216,9.83,9.83,0,0,0,94.3,212.44ZM29.84,133.08a9.83,9.83,0,1,0,9.83,9.83A9.83,9.83,0,0,0,29.84,133.08Zm0-32.28a9.83,9.83,0,1,0,9.83,9.83A9.83,9.83,0,0,0,29.84,100.8Zm34.37,68.59a6,6,0,0,1,6.14-.18l.43.25a6,6,0,0,1,2.92,5.41,12.13,12.13,0,0,0,18.5,10.68,6,6,0,0,1,6.15-.18l.42.25a5.8,5.8,0,0,1,2.93,5.24,12.14,12.14,0,1,0,6-10,6,6,0,0,1-6-.1l-.69-.39A6,6,0,0,1,98,175.24a12.11,12.11,0,0,0-18.2-10.5,6,6,0,0,1-6-.1l-.86-.49a5.78,5.78,0,0,1-2.93-5,12.08,12.08,0,0,0-5.49-10.23h0l-.49-.3-.21-.13a6.1,6.1,0,0,1-3.08-5.33v-.46a6.18,6.18,0,0,1,3.15-5.37A12.09,12.09,0,0,0,70,126.63,12.14,12.14,0,1,0,51.8,137.29,6.27,6.27,0,0,1,55,142.7v.44A6.06,6.06,0,0,1,52,148.46l-.22.15a11.84,11.84,0,0,0-4.11,3.89,12.14,12.14,0,0,0,16.58,16.89Zm49.58-42.63L78.24,106.23h0v34.55a11.29,11.29,0,0,0,5.64,9.77l29.9,17.26h0Z"/><path class="cls-3" d="M149.34,140.79a11.29,11.29,0,0,1-5.64,9.77l-29.9,17.26h0V126.76l35.54-20.53h0Zm48.39-72.27a9.83,9.83,0,1,0,9.82,9.83A9.83,9.83,0,0,0,197.73,68.52Zm9.82,106.67a9.83,9.83,0,1,1-9.82-9.83A9.82,9.82,0,0,1,207.55,175.19Zm0-32.28a9.83,9.83,0,1,1-9.82-9.83A9.82,9.82,0,0,1,207.55,142.91Zm0-32.28a9.83,9.83,0,1,1-9.82-9.83A9.82,9.82,0,0,1,207.55,110.63Zm-42.73,72.26a9.82,9.82,0,1,1-3.59,13.42A9.81,9.81,0,0,1,164.82,182.89ZM136.87,199a9.82,9.82,0,1,1-3.6,13.42A9.83,9.83,0,0,1,136.87,199Zm45-40a12.13,12.13,0,0,1-12.72,12.12,11.9,11.9,0,0,1-5.43-1.61l-.23-.12a6.1,6.1,0,0,0-6.15,0l-.38.22a6.29,6.29,0,0,0-3.07,5.51,12.14,12.14,0,1,1-6-10.44,6.2,6.2,0,0,0,6.23.05l.4-.23a6.09,6.09,0,0,0,3.07-5.33c0-.09,0-.17,0-.26s0-.38,0-.56h0a12.11,12.11,0,0,1,6.12-9.88,5.76,5.76,0,0,0,2.86-5v-1a6,6,0,0,0-2.92-5.26,12.1,12.1,0,0,1,0-21,6,6,0,0,0,2.92-5.26v-.8a6,6,0,0,0-2.92-5.26,12.12,12.12,0,1,1,11.65.26,5.79,5.79,0,0,0-3.08,5.15v.5a6,6,0,0,0,3.23,5.23,12.13,12.13,0,0,1,0,21.36,6,6,0,0,0-3.23,5.24v.49a6,6,0,0,0,3.23,5.23A12.14,12.14,0,0,1,181.87,159.07Z"/><polygon class="cls-4" points="221.38 192.29 111.69 255.62 2 192.29 2 65.64 111.69 2.31 221.38 65.64 221.38 192.29"/></g></g></svg>